# Blender v2.78 (sub 0) OBJ File: 'Ship11.blend'
# www.blender.org
o Cube.001_Cube.000
v 0.890846 -1.880681 -0.186061
v 0.603344 -1.880681 0.312829
v 0.986679 -1.880681 0.041086
v 0.699178 -1.880681 -0.186061
v 0.699178 -1.880681 0.478007
v 0.986679 -1.880681 0.312829
v 0.890846 -1.880681 0.478007
v 0.603344 -1.880681 0.041086
v 0.738103 -2.523724 0.125723
v 0.823466 -2.523724 0.058280
v 0.738103 -2.523724 0.206407
v 0.851921 -2.523724 0.125723
v 0.766558 -2.523724 0.058280
v 0.766558 -2.523724 0.255451
v 0.851921 -2.523724 0.206407
v 0.823466 -2.523724 0.255451
v 0.646026 -1.264425 -0.378809
v 0.497040 -1.264425 -0.025679
v 1.092983 -1.264425 -0.025679
v 0.943998 -1.264425 0.653570
v 0.497040 -1.264425 0.396780
v 1.092983 -1.264425 0.396780
v 0.943998 -1.264425 -0.378809
v 0.646026 -1.264425 0.653570
v 0.742599 -2.349570 -0.028601
v 0.690186 -2.349570 0.095628
v 0.899838 -2.349570 0.095628
v 0.847425 -2.349570 0.334587
v 0.690186 -2.349570 0.244248
v 0.899838 -2.349570 0.244248
v 0.847425 -2.349570 -0.028601
v 0.742599 -2.349570 0.334587
v 0.795012 -1.880681 -0.207249
v 0.962721 -1.880681 -0.108086
v 0.627303 -1.880681 0.397609
v 0.603344 -1.880681 0.201408
v 0.986679 -1.880681 0.201408
v 0.627303 -1.880681 -0.108086
v 0.795012 -1.880681 0.517111
v 0.962721 -1.880681 0.397609
v 0.837693 -2.530420 0.092757
v 0.745217 -2.530420 0.170935
v 0.752330 -2.530420 0.092757
v 0.795012 -2.530420 0.066460
v 0.752330 -2.530420 0.222734
v 0.844807 -2.530420 0.170935
v 0.795012 -2.530420 0.252411
v 0.837693 -2.530420 0.222734
v 1.055737 -1.264425 -0.257587
v 0.534286 -1.264425 -0.257587
v 0.497040 -1.264425 0.223561
v 1.092983 -1.264425 0.223561
v 0.534286 -1.264425 0.528581
v 1.055737 -1.264425 0.528581
v 0.795012 -1.264425 -0.411748
v 0.795012 -1.264425 0.714362
v 0.884956 -2.351244 0.016875
v 0.705068 -2.351244 0.016875
v 0.691965 -2.351244 0.182713
v 0.898059 -2.351244 0.182713
v 0.705068 -2.351244 0.288404
v 0.884956 -2.351244 0.288404
v 0.795012 -2.351244 -0.036572
v 0.795012 -2.351244 0.352310
v 0.795012 -2.560554 0.161465
v -0.890845 -1.880681 -0.186061
v -0.603344 -1.880681 0.312829
v -0.986679 -1.880681 0.041086
v -0.699178 -1.880681 -0.186061
v -0.699178 -1.880681 0.478007
v -0.986679 -1.880681 0.312829
v -0.890845 -1.880681 0.478007
v -0.603344 -1.880681 0.041086
v -0.738103 -2.523724 0.125723
v -0.823466 -2.523724 0.058280
v -0.738103 -2.523724 0.206407
v -0.851920 -2.523724 0.125723
v -0.766557 -2.523724 0.058280
v -0.766557 -2.523724 0.255451
v -0.851920 -2.523724 0.206407
v -0.823466 -2.523724 0.255451
v -0.646026 -1.264425 -0.378809
v -0.497040 -1.264425 -0.025679
v -1.092983 -1.264425 -0.025679
v -0.943998 -1.264425 0.653570
v -0.497040 -1.264425 0.396780
v -1.092983 -1.264425 0.396780
v -0.943998 -1.264425 -0.378809
v -0.646026 -1.264425 0.653570
v -0.742599 -2.349570 -0.028601
v -0.690186 -2.349570 0.095628
v -0.899837 -2.349570 0.095628
v -0.847424 -2.349570 0.334587
v -0.690186 -2.349570 0.244248
v -0.899837 -2.349570 0.244248
v -0.847424 -2.349570 -0.028601
v -0.742599 -2.349570 0.334587
v -0.795012 -1.880681 -0.207249
v -0.962721 -1.880681 -0.108086
v -0.627303 -1.880681 0.397609
v -0.603344 -1.880681 0.201408
v -0.986679 -1.880681 0.201408
v -0.627303 -1.880681 -0.108086
v -0.795012 -1.880681 0.517111
v -0.962721 -1.880681 0.397609
v -0.837693 -2.530420 0.092757
v -0.745217 -2.530420 0.170935
v -0.752330 -2.530420 0.092757
v -0.795012 -2.530420 0.066460
v -0.752330 -2.530420 0.222734
v -0.844807 -2.530420 0.170935
v -0.795012 -2.530420 0.252411
v -0.837693 -2.530420 0.222734
v -1.055737 -1.264425 -0.257587
v -0.534286 -1.264425 -0.257587
v -0.497040 -1.264425 0.223561
v -1.092983 -1.264425 0.223561
v -0.534286 -1.264425 0.528581
v -1.055737 -1.264425 0.528581
v -0.795012 -1.264425 -0.411748
v -0.795012 -1.264425 0.714362
v -0.884956 -2.351244 0.016875
v -0.705068 -2.351244 0.016875
v -0.691964 -2.351244 0.182713
v -0.898059 -2.351244 0.182713
v -0.705068 -2.351244 0.288404
v -0.884956 -2.351244 0.288404
v -0.795012 -2.351244 -0.036572
v -0.795012 -2.351244 0.352310
v -0.795012 -2.560554 0.161465
vt 0.6769 0.1127
vt 0.5376 0.0718
vt 0.6295 0.0159
vt 0.7521 0.1038
vt 0.7512 0.1831
vt 0.7126 0.1860
vt 0.6203 0.1464
vt 0.8996 0.3311
vt 0.9999 0.2956
vt 0.9955 0.3747
vt 0.8802 0.3674
vt 0.8157 0.3162
vt 0.8269 0.2983
vt 0.9016 0.2830
vt 0.5997 0.2105
vt 0.5001 0.2901
vt 0.5026 0.1762
vt 0.6847 0.2043
vt 0.6732 0.2362
vt 0.5987 0.2797
vt 0.8766 0.0187
vt 0.8270 0.1143
vt 0.9672 0.0766
vt 0.8829 0.1493
vt 0.7897 0.1868
vt 0.8238 0.4022
vt 0.9635 0.4338
vt 0.8716 0.4918
vt 0.7486 0.4178
vt 0.7495 0.3410
vt 0.7880 0.3345
vt 0.6182 0.3645
vt 0.5028 0.3693
vt 0.5996 0.3278
vt 0.6730 0.2966
vt 0.6838 0.3147
vt 0.6240 0.4890
vt 0.6738 0.4005
vt 0.5335 0.4290
vt 0.7111 0.3337
vt 0.9999 0.1817
vt 0.9021 0.2138
vt 0.8280 0.2379
vt 0.8173 0.2057
vt 0.7812 0.2369
vt 0.7913 0.2501
vt 0.8264 0.2733
vt 0.7859 0.2679
vt 0.7503 0.2637
vt 0.7304 0.2227
vt 0.7507 0.2261
vt 0.7200 0.2363
vt 0.7908 0.2820
vt 0.7805 0.2883
vt 0.7097 0.2492
vt 0.6740 0.2716
vt 0.7146 0.2671
vt 0.7712 0.2231
vt 0.7701 0.3010
vt 0.7499 0.2995
vt 0.7095 0.2811
vt 0.7196 0.2876
vt 0.7297 0.3006
vt 0.3270 0.1143
vt 0.4672 0.0766
vt 0.3829 0.1493
vt 0.2521 0.1038
vt 0.3766 0.0187
vt 0.2512 0.1831
vt 0.2897 0.1868
vt 0.0996 0.3278
vt 0.0001 0.2901
vt 0.0987 0.2797
vt 0.1182 0.3645
vt 0.0028 0.3693
vt 0.1838 0.3147
vt 0.1730 0.2966
vt 0.4021 0.2138
vt 0.4999 0.2956
vt 0.4016 0.2830
vt 0.4999 0.1817
vt 0.3173 0.2057
vt 0.3280 0.2379
vt 0.1295 0.0159
vt 0.1769 0.1127
vt 0.0376 0.0718
vt 0.2126 0.1860
vt 0.1203 0.1464
vt 0.1738 0.4005
vt 0.0335 0.4290
vt 0.2486 0.4178
vt 0.1240 0.4890
vt 0.2495 0.3410
vt 0.2111 0.3337
vt 0.4955 0.3747
vt 0.3802 0.3674
vt 0.3996 0.3311
vt 0.3269 0.2983
vt 0.3157 0.3162
vt 0.3716 0.4918
vt 0.3238 0.4022
vt 0.4635 0.4338
vt 0.2880 0.3345
vt 0.0026 0.1762
vt 0.0997 0.2105
vt 0.1732 0.2362
vt 0.1847 0.2043
vt 0.2200 0.2363
vt 0.2097 0.2492
vt 0.1740 0.2716
vt 0.2503 0.2637
vt 0.2146 0.2671
vt 0.2712 0.2231
vt 0.2812 0.2369
vt 0.2507 0.2261
vt 0.2095 0.2811
vt 0.2196 0.2876
vt 0.2913 0.2501
vt 0.3264 0.2733
vt 0.2859 0.2679
vt 0.2304 0.2227
vt 0.2297 0.3006
vt 0.2499 0.2995
vt 0.2908 0.2820
vt 0.2805 0.2883
vt 0.2701 0.3010
vt 0.7532 0.0001
vt 0.7475 0.5187
vt 0.2532 0.0001
vt 0.2475 0.5187
vn -0.4747 0.3103 0.8236
vn -0.8626 0.2384 0.4462
vn -0.4641 0.3006 0.8332
vn 0.0000 0.3274 0.9449
vn 0.0000 0.3990 0.9169
vn -0.4570 0.3810 0.8037
vn -0.8737 0.2434 0.4212
vn 0.9717 0.1938 -0.1352
vn 0.9854 0.1700 0.0000
vn 0.9717 0.1872 -0.1439
vn 0.8521 0.2369 -0.4666
vn 0.8364 0.2973 -0.4604
vn 0.9586 0.2456 -0.1436
vn 0.9843 0.1762 0.0000
vn -0.9796 0.1849 0.0788
vn -0.9854 0.1700 0.0000
vn -0.9805 0.1781 0.0828
vn -0.8626 0.3075 0.4016
vn -0.9664 0.2421 0.0865
vn -0.9843 0.1762 0.0000
vn 0.4641 0.3006 0.8332
vn 0.4747 0.3103 0.8236
vn 0.8626 0.2384 0.4462
vn 0.8737 0.2434 0.4212
vn 0.4570 0.3810 0.8037
vn 0.5531 0.2820 -0.7839
vn 0.8458 0.2300 -0.4814
vn 0.5449 0.2729 -0.7928
vn 0.0000 0.3167 -0.9485
vn 0.0000 0.3845 -0.9231
vn 0.5343 0.3495 -0.7696
vn -0.8521 0.2369 -0.4666
vn -0.9717 0.1872 -0.1439
vn -0.9717 0.1938 -0.1352
vn -0.9586 0.2456 -0.1436
vn -0.8364 0.2973 -0.4604
vn -0.5449 0.2729 -0.7928
vn -0.5531 0.2820 -0.7839
vn -0.8458 0.2300 -0.4814
vn -0.5343 0.3495 -0.7696
vn 0.9805 0.1781 0.0828
vn 0.9796 0.1849 0.0788
vn 0.9664 0.2421 0.0865
vn 0.8626 0.3075 0.4016
vn 0.6198 0.7258 0.2983
vn 0.8221 0.5621 0.0905
vn 0.9741 0.2259 0.0034
vn 0.7545 0.6562 -0.0075
vn 0.0000 1.0000 -0.0071
vn -0.3591 0.6899 0.6285
vn 0.0000 0.8349 0.5503
vn -0.6198 0.7258 0.2983
vn 0.8096 0.5681 -0.1477
vn 0.5658 0.7486 -0.3457
vn -0.8221 0.5621 0.0905
vn -0.9741 0.2259 0.0034
vn -0.7545 0.6562 -0.0075
vn 0.3591 0.6899 0.6285
vn 0.4180 0.6678 -0.6158
vn 0.0000 0.8063 -0.5914
vn -0.8096 0.5681 -0.1477
vn -0.5658 0.7486 -0.3457
vn -0.4180 0.6678 -0.6158
vn 0.0000 0.3150 0.9491
vn 0.0000 0.3048 -0.9524
s 1
f 1/1/1 49/2/2 23/3/3
f 23/3/3 33/4/4 1/1/1
f 1/1/1 63/5/5 31/6/6
f 31/6/6 34/7/7 1/1/1
f 2/8/8 51/9/9 21/10/10
f 21/10/10 35/11/11 2/8/8
f 2/8/8 61/12/12 29/13/13
f 29/13/13 36/14/14 2/8/8
f 3/15/15 52/16/16 19/17/17
f 19/17/17 34/7/7 3/15/15
f 3/15/15 57/18/18 27/19/19
f 27/19/19 37/20/20 3/15/15
f 33/4/4 17/21/21 4/22/22
f 4/22/22 50/23/23 38/24/24
f 38/24/24 25/25/25 4/22/22
f 4/22/22 63/5/5 33/4/4
f 5/26/26 53/27/27 24/28/28
f 24/28/28 39/29/29 5/26/26
f 5/26/26 64/30/30 32/31/31
f 32/31/31 35/11/11 5/26/26
f 40/32/32 22/33/33 6/34/34
f 6/34/34 52/16/16 37/20/20
f 37/20/20 30/35/35 6/34/34
f 6/34/34 62/36/36 40/32/32
f 39/29/29 20/37/37 7/38/38
f 7/38/38 54/39/39 40/32/32
f 40/32/32 28/40/40 7/38/38
f 7/38/38 64/30/30 39/29/29
f 38/24/24 18/41/41 8/42/42
f 8/42/42 51/9/9 36/14/14
f 36/14/14 26/43/43 8/42/42
f 8/42/42 58/44/44 38/24/24
f 43/45/45 26/43/43 9/46/46
f 9/46/46 59/47/47 42/48/48
f 9/46/46 65/49/49 43/45/45
f 10/50/50 57/18/18 31/6/6
f 10/50/50 63/5/5 44/51/51
f 44/51/51 41/52/52 10/50/50
f 11/53/53 59/47/47 29/13/13
f 11/53/53 61/12/12 45/54/54
f 45/54/54 42/48/48 11/53/53
f 12/55/55 60/56/56 27/19/19
f 27/19/19 41/52/52 12/55/55
f 12/55/55 65/49/49 46/57/57
f 13/58/58 63/5/5 25/25/25
f 13/58/58 58/44/44 43/45/45
f 43/45/45 44/51/51 13/58/58
f 14/59/59 61/12/12 32/31/31
f 14/59/59 64/30/30 47/60/60
f 47/60/60 45/54/54 14/59/59
f 15/61/61 62/36/36 30/35/35
f 15/61/61 60/56/56 46/57/57
f 46/57/57 48/62/62 15/61/61
f 16/63/63 64/30/30 28/40/40
f 16/63/63 62/36/36 48/62/62
f 48/62/62 47/60/60 16/63/63
f 66/64/22 114/65/23 99/66/24
f 98/67/4 88/68/21 66/64/22
f 66/64/22 128/69/5 98/67/4
f 99/66/24 96/70/25 66/64/22
f 67/71/34 116/72/16 101/73/20
f 100/74/32 86/75/33 67/71/34
f 67/71/34 126/76/36 100/74/32
f 101/73/20 94/77/35 67/71/34
f 68/78/42 117/79/9 102/80/14
f 99/66/24 84/81/41 68/78/42
f 68/78/42 122/82/44 99/66/24
f 102/80/14 92/83/43 68/78/42
f 82/84/3 98/67/4 69/85/1
f 69/85/1 115/86/2 82/84/3
f 90/87/6 103/88/7 69/85/1
f 69/85/1 128/69/5 90/87/6
f 70/89/38 118/90/39 100/74/32
f 104/91/29 89/92/37 70/89/38
f 70/89/38 129/93/30 104/91/29
f 100/74/32 97/94/40 70/89/38
f 87/95/10 105/96/11 71/97/8
f 71/97/8 117/79/9 87/95/10
f 95/98/13 102/80/14 71/97/8
f 71/97/8 127/99/12 95/98/13
f 85/100/28 104/91/29 72/101/26
f 72/101/26 119/102/27 85/100/28
f 93/103/31 105/96/11 72/101/26
f 72/101/26 129/93/30 93/103/31
f 83/104/17 103/88/7 73/105/15
f 73/105/15 116/72/16 83/104/17
f 91/106/19 101/73/20 73/105/15
f 73/105/15 123/107/18 91/106/19
f 91/106/19 108/108/52 74/109/55
f 74/109/55 124/110/56 91/106/19
f 74/109/55 130/111/49 107/112/57
f 75/113/58 122/82/44 106/114/45
f 75/113/58 128/69/5 96/70/25
f 106/114/45 109/115/51 75/113/58
f 76/116/61 124/110/56 107/112/57
f 76/116/61 126/76/36 94/77/35
f 107/112/57 110/117/62 76/116/61
f 77/118/46 125/119/47 111/120/48
f 106/114/45 92/83/43 77/118/46
f 77/118/46 130/111/49 106/114/45
f 78/121/50 128/69/5 109/115/51
f 78/121/50 123/107/18 90/87/6
f 109/115/51 108/108/52 78/121/50
f 79/122/63 126/76/36 110/117/62
f 79/122/63 129/93/30 97/94/40
f 110/117/62 112/123/60 79/122/63
f 80/124/53 127/99/12 113/125/54
f 80/124/53 125/119/47 95/98/13
f 113/125/54 111/120/48 80/124/53
f 81/126/59 129/93/30 112/123/60
f 81/126/59 127/99/12 93/103/31
f 112/123/60 113/125/54 81/126/59
f 1/1/1 34/7/7 49/2/2
f 23/3/3 55/127/64 33/4/4
f 1/1/1 33/4/4 63/5/5
f 31/6/6 57/18/18 34/7/7
f 2/8/8 36/14/14 51/9/9
f 21/10/10 53/27/27 35/11/11
f 2/8/8 35/11/11 61/12/12
f 29/13/13 59/47/47 36/14/14
f 3/15/15 37/20/20 52/16/16
f 19/17/17 49/2/2 34/7/7
f 3/15/15 34/7/7 57/18/18
f 27/19/19 60/56/56 37/20/20
f 33/4/4 55/127/64 17/21/21
f 4/22/22 17/21/21 50/23/23
f 38/24/24 58/44/44 25/25/25
f 4/22/22 25/25/25 63/5/5
f 5/26/26 35/11/11 53/27/27
f 24/28/28 56/128/65 39/29/29
f 5/26/26 39/29/29 64/30/30
f 32/31/31 61/12/12 35/11/11
f 40/32/32 54/39/39 22/33/33
f 6/34/34 22/33/33 52/16/16
f 37/20/20 60/56/56 30/35/35
f 6/34/34 30/35/35 62/36/36
f 39/29/29 56/128/65 20/37/37
f 7/38/38 20/37/37 54/39/39
f 40/32/32 62/36/36 28/40/40
f 7/38/38 28/40/40 64/30/30
f 38/24/24 50/23/23 18/41/41
f 8/42/42 18/41/41 51/9/9
f 36/14/14 59/47/47 26/43/43
f 8/42/42 26/43/43 58/44/44
f 43/45/45 58/44/44 26/43/43
f 9/46/46 26/43/43 59/47/47
f 9/46/46 42/48/48 65/49/49
f 10/50/50 41/52/52 57/18/18
f 10/50/50 31/6/6 63/5/5
f 44/51/51 65/49/49 41/52/52
f 11/53/53 42/48/48 59/47/47
f 11/53/53 29/13/13 61/12/12
f 45/54/54 65/49/49 42/48/48
f 12/55/55 46/57/57 60/56/56
f 27/19/19 57/18/18 41/52/52
f 12/55/55 41/52/52 65/49/49
f 13/58/58 44/51/51 63/5/5
f 13/58/58 25/25/25 58/44/44
f 43/45/45 65/49/49 44/51/51
f 14/59/59 45/54/54 61/12/12
f 14/59/59 32/31/31 64/30/30
f 47/60/60 65/49/49 45/54/54
f 15/61/61 48/62/62 62/36/36
f 15/61/61 30/35/35 60/56/56
f 46/57/57 65/49/49 48/62/62
f 16/63/63 47/60/60 64/30/30
f 16/63/63 28/40/40 62/36/36
f 48/62/62 65/49/49 47/60/60
f 66/64/22 88/68/21 114/65/23
f 98/67/4 120/129/64 88/68/21
f 66/64/22 96/70/25 128/69/5
f 99/66/24 122/82/44 96/70/25
f 67/71/34 86/75/33 116/72/16
f 100/74/32 118/90/39 86/75/33
f 67/71/34 94/77/35 126/76/36
f 101/73/20 124/110/56 94/77/35
f 68/78/42 84/81/41 117/79/9
f 99/66/24 114/65/23 84/81/41
f 68/78/42 92/83/43 122/82/44
f 102/80/14 125/119/47 92/83/43
f 82/84/3 120/129/64 98/67/4
f 69/85/1 103/88/7 115/86/2
f 90/87/6 123/107/18 103/88/7
f 69/85/1 98/67/4 128/69/5
f 70/89/38 89/92/37 118/90/39
f 104/91/29 121/130/65 89/92/37
f 70/89/38 97/94/40 129/93/30
f 100/74/32 126/76/36 97/94/40
f 87/95/10 119/102/27 105/96/11
f 71/97/8 102/80/14 117/79/9
f 95/98/13 125/119/47 102/80/14
f 71/97/8 105/96/11 127/99/12
f 85/100/28 121/130/65 104/91/29
f 72/101/26 105/96/11 119/102/27
f 93/103/31 127/99/12 105/96/11
f 72/101/26 104/91/29 129/93/30
f 83/104/17 115/86/2 103/88/7
f 73/105/15 101/73/20 116/72/16
f 91/106/19 124/110/56 101/73/20
f 73/105/15 103/88/7 123/107/18
f 91/106/19 123/107/18 108/108/52
f 74/109/55 107/112/57 124/110/56
f 74/109/55 108/108/52 130/111/49
f 75/113/58 96/70/25 122/82/44
f 75/113/58 109/115/51 128/69/5
f 106/114/45 130/111/49 109/115/51
f 76/116/61 94/77/35 124/110/56
f 76/116/61 110/117/62 126/76/36
f 107/112/57 130/111/49 110/117/62
f 77/118/46 92/83/43 125/119/47
f 106/114/45 122/82/44 92/83/43
f 77/118/46 111/120/48 130/111/49
f 78/121/50 90/87/6 128/69/5
f 78/121/50 108/108/52 123/107/18
f 109/115/51 130/111/49 108/108/52
f 79/122/63 97/94/40 126/76/36
f 79/122/63 112/123/60 129/93/30
f 110/117/62 130/111/49 112/123/60
f 80/124/53 95/98/13 127/99/12
f 80/124/53 111/120/48 125/119/47
f 113/125/54 130/111/49 111/120/48
f 81/126/59 93/103/31 129/93/30
f 81/126/59 113/125/54 127/99/12
f 112/123/60 130/111/49 113/125/54
